<svg xmlns="http://www.w3.org/2000/svg" viewBox="0 0 186 186"><defs><style>.cls-1{fill:#fff;}.cls-2{fill:#cecece;}</style></defs><title>Asset 1</title><g id="Layer_2" data-name="Layer 2"><g id="Layer_1-2" data-name="Layer 1"><rect class="cls-1" x="5" y="5" width="176" height="176" rx="9.75" ry="9.75"/><path class="cls-2" d="M171.25,10A4.75,4.75,0,0,1,176,14.75v156.5a4.75,4.75,0,0,1-4.75,4.75H14.75A4.75,4.75,0,0,1,10,171.25h0V14.75A4.75,4.75,0,0,1,14.75,10h156.5m0-10H14.75A14.75,14.75,0,0,0,0,14.75v156.5A14.75,14.75,0,0,0,14.75,186h156.5A14.75,14.75,0,0,0,186,171.25h0V14.75A14.75,14.75,0,0,0,171.25,0Z"/></g></g></svg>