<?xml version="1.0" encoding="UTF-8" standalone="no"?>
<svg
   xmlns:dc="http://purl.org/dc/elements/1.1/"
   xmlns:cc="http://creativecommons.org/ns#"
   xmlns:rdf="http://www.w3.org/1999/02/22-rdf-syntax-ns#"
   xmlns:svg="http://www.w3.org/2000/svg"
   xmlns="http://www.w3.org/2000/svg"
   xmlns:sodipodi="http://sodipodi.sourceforge.net/DTD/sodipodi-0.dtd"
   xmlns:inkscape="http://www.inkscape.org/namespaces/inkscape"
   id="Layer_1"
   data-name="Layer 1"
   viewBox="0 0 186.1 186.1"
   version="1.1"
   sodipodi:docname="test123.svg"
   inkscape:version="0.92.2 (unknown)">
  <metadata
     id="metadata80">
    <rdf:RDF>
      <cc:Work
         rdf:about="">
        <dc:format>image/svg+xml</dc:format>
        <dc:type
           rdf:resource="http://purl.org/dc/dcmitype/StillImage" />
        <dc:title>Untitled-2</dc:title>
      </cc:Work>
    </rdf:RDF>
  </metadata>
  <sodipodi:namedview
     pagecolor="#ffffff"
     bordercolor="#666666"
     borderopacity="1"
     objecttolerance="10"
     gridtolerance="10"
     guidetolerance="10"
     inkscape:pageopacity="0"
     inkscape:pageshadow="2"
     inkscape:window-width="1313"
     inkscape:window-height="744"
     id="namedview78"
     showgrid="false"
     inkscape:zoom="0.28592038"
     inkscape:cx="619.81418"
     inkscape:cy="-44.117973"
     inkscape:window-x="53"
     inkscape:window-y="24"
     inkscape:window-maximized="1"
     inkscape:current-layer="Layer_1" />
  <defs
     id="defs67">
    <style
       id="style65">.cls-1{fill:#cecece;}.cls-2,.cls-3{fill:#fff;}.cls-3{stroke:#56c9eb;stroke-miterlimit:10;stroke-width:27px;}</style>
  </defs>
  <title
     id="title69">Untitled-2</title>
  <path
     class="cls-1"
     d="M171.2,10a4.8,4.8,0,0,1,4.8,4.8V171.3a4.8,4.8,0,0,1-4.8,4.8H14.8a4.8,4.8,0,0,1-4.8-4.8h0V14.8A4.8,4.8,0,0,1,14.8,10H171.2m0-10H14.8A14.77,14.77,0,0,0,0,14.8V171.3a14.83,14.83,0,0,0,14.8,14.8H171.3a14.83,14.83,0,0,0,14.8-14.8h0V14.8A14.92,14.92,0,0,0,171.2,0Z"
     id="path71" />
  <path
     class="cls-2"
     d="M144,33"
     id="path73" />
  <path
     class="cls-3"
     d="M 141.12273,54.010891 90.297833,120.31757 48.791819,78.896096"
     id="path75"
     inkscape:connector-curvature="0"
     style="fill:#ffffff;stroke:#56c9eb;stroke-width:23.88817215px;stroke-miterlimit:10"
     sodipodi:nodetypes="ccc" />
</svg>
