<svg xmlns="http://www.w3.org/2000/svg" viewBox="0 0 186 186"><defs><style>.cls-1{fill:#fff;}.cls-2{fill:#cecece;}.cls-3{fill:#56c9eb;}</style></defs><title>Asset 2</title><g id="Layer_2" data-name="Layer 2"><g id="Layer_1-2" data-name="Layer 1"><path class="cls-1" d="M93,181a88,88,0,1,1,88-88A88,88,0,0,1,93,181Z"/><path class="cls-2" d="M93,10A83,83,0,1,1,10,93,83,83,0,0,1,93,10M93,0h0A93,93,0,0,0,0,93H0a93,93,0,0,0,93,93h0a93,93,0,0,0,93-93h0A93,93,0,0,0,93,0Z"/><rect class="cls-3" x="33.79" y="33.79" width="118.43" height="118.43" rx="59.21" ry="59.21"/></g></g></svg>